<mxfile host="app.diagrams.net" modified="2023-09-25T14:29:37.068Z" agent="Mozilla/5.0 (Macintosh; Intel Mac OS X 10_15_7) AppleWebKit/537.36 (KHTML, like Gecko) Chrome/116.0.0.0 Safari/537.36" version="21.8.2" etag="vIW9_ksxeUKwbTAVxU4W" type="github">
  <diagram name="페이지-1" id="fSiY5BuiPt7lJ4b8UBY-">
    <mxGraphModel>
      <root>
        <mxCell id="0" />
        <mxCell id="1" parent="0" />
      </root>
    </mxGraphModel>
  </diagram>
</mxfile>
